%
M48
M72
T01C0.0120
T02C0.0138
T03C0.0320
T04C0.0394
T05C0.0400
T06C0.0512
T07C0.1260
%
T01
X9366Y29080
T02
X8761Y29628
X8368Y30415
X6006Y30415
X6006Y31990
X13092Y27265
X15061Y26583
X15000Y29960
T03
X1962Y17029
X2962Y17029
X5112Y17029
X6112Y17029
X8761Y17891
X9943Y17891
X11021Y17891
X12202Y17891
X12202Y20891
X11021Y20891
X10702Y22541
X9655Y22541
X9943Y20891
X8761Y20891
X8655Y22541
X7399Y22541
X7399Y24509
X5399Y24509
X5399Y22541
X10702Y24069
X13702Y24069
X13702Y22541
X15820Y26872
X15820Y28006
X15820Y29187
X15820Y30336
X18820Y30336
X18820Y29187
X18820Y28006
X18820Y26872
T04
X2057Y7862
X2057Y9862
X2057Y13862
X2057Y14862
X5988Y14862
X5988Y13862
X5988Y9862
X5988Y7862
T05
X2251Y31581
X2251Y29801
X2251Y28388
X2251Y26608
X3466Y24612
X3466Y23612
X3466Y22612
X3466Y21612
X6399Y18604
X6399Y20179
X4811Y26608
X4811Y28388
X4811Y29801
X4811Y31581
X13903Y19037
X14903Y19037
X15903Y19037
X16903Y19037
X17903Y19037
X18903Y19037
X2069Y5218
X2069Y3643
T06
X4505Y3236
X6505Y3236
X10773Y3236
X12773Y3236
X14773Y3236
T07
X3250Y19391
X19391Y31990
X19391Y2856
M30
