G75*
%MOIN*%
%OFA0B0*%
%FSLAX25Y25*%
%IPPOS*%
%LPD*%
%AMOC8*
5,1,8,0,0,1.08239X$1,22.5*
%
%ADD10C,0.00000*%
D10*
X0001000Y0001000D02*
X0001000Y0335646D01*
X0228559Y0335646D01*
X0228559Y0001000D01*
X0001000Y0001000D01*
X0026197Y0193913D02*
X0026199Y0194071D01*
X0026205Y0194229D01*
X0026215Y0194387D01*
X0026229Y0194545D01*
X0026247Y0194702D01*
X0026268Y0194859D01*
X0026294Y0195015D01*
X0026324Y0195171D01*
X0026357Y0195326D01*
X0026395Y0195479D01*
X0026436Y0195632D01*
X0026481Y0195784D01*
X0026530Y0195935D01*
X0026583Y0196084D01*
X0026639Y0196232D01*
X0026699Y0196378D01*
X0026763Y0196523D01*
X0026831Y0196666D01*
X0026902Y0196808D01*
X0026976Y0196948D01*
X0027054Y0197085D01*
X0027136Y0197221D01*
X0027220Y0197355D01*
X0027309Y0197486D01*
X0027400Y0197615D01*
X0027495Y0197742D01*
X0027592Y0197867D01*
X0027693Y0197989D01*
X0027797Y0198108D01*
X0027904Y0198225D01*
X0028014Y0198339D01*
X0028127Y0198450D01*
X0028242Y0198559D01*
X0028360Y0198664D01*
X0028481Y0198766D01*
X0028604Y0198866D01*
X0028730Y0198962D01*
X0028858Y0199055D01*
X0028988Y0199145D01*
X0029121Y0199231D01*
X0029256Y0199315D01*
X0029392Y0199394D01*
X0029531Y0199471D01*
X0029672Y0199543D01*
X0029814Y0199613D01*
X0029958Y0199678D01*
X0030104Y0199740D01*
X0030251Y0199798D01*
X0030400Y0199853D01*
X0030550Y0199904D01*
X0030701Y0199951D01*
X0030853Y0199994D01*
X0031006Y0200033D01*
X0031161Y0200069D01*
X0031316Y0200100D01*
X0031472Y0200128D01*
X0031628Y0200152D01*
X0031785Y0200172D01*
X0031943Y0200188D01*
X0032100Y0200200D01*
X0032259Y0200208D01*
X0032417Y0200212D01*
X0032575Y0200212D01*
X0032733Y0200208D01*
X0032892Y0200200D01*
X0033049Y0200188D01*
X0033207Y0200172D01*
X0033364Y0200152D01*
X0033520Y0200128D01*
X0033676Y0200100D01*
X0033831Y0200069D01*
X0033986Y0200033D01*
X0034139Y0199994D01*
X0034291Y0199951D01*
X0034442Y0199904D01*
X0034592Y0199853D01*
X0034741Y0199798D01*
X0034888Y0199740D01*
X0035034Y0199678D01*
X0035178Y0199613D01*
X0035320Y0199543D01*
X0035461Y0199471D01*
X0035600Y0199394D01*
X0035736Y0199315D01*
X0035871Y0199231D01*
X0036004Y0199145D01*
X0036134Y0199055D01*
X0036262Y0198962D01*
X0036388Y0198866D01*
X0036511Y0198766D01*
X0036632Y0198664D01*
X0036750Y0198559D01*
X0036865Y0198450D01*
X0036978Y0198339D01*
X0037088Y0198225D01*
X0037195Y0198108D01*
X0037299Y0197989D01*
X0037400Y0197867D01*
X0037497Y0197742D01*
X0037592Y0197615D01*
X0037683Y0197486D01*
X0037772Y0197355D01*
X0037856Y0197221D01*
X0037938Y0197085D01*
X0038016Y0196948D01*
X0038090Y0196808D01*
X0038161Y0196666D01*
X0038229Y0196523D01*
X0038293Y0196378D01*
X0038353Y0196232D01*
X0038409Y0196084D01*
X0038462Y0195935D01*
X0038511Y0195784D01*
X0038556Y0195632D01*
X0038597Y0195479D01*
X0038635Y0195326D01*
X0038668Y0195171D01*
X0038698Y0195015D01*
X0038724Y0194859D01*
X0038745Y0194702D01*
X0038763Y0194545D01*
X0038777Y0194387D01*
X0038787Y0194229D01*
X0038793Y0194071D01*
X0038795Y0193913D01*
X0038793Y0193755D01*
X0038787Y0193597D01*
X0038777Y0193439D01*
X0038763Y0193281D01*
X0038745Y0193124D01*
X0038724Y0192967D01*
X0038698Y0192811D01*
X0038668Y0192655D01*
X0038635Y0192500D01*
X0038597Y0192347D01*
X0038556Y0192194D01*
X0038511Y0192042D01*
X0038462Y0191891D01*
X0038409Y0191742D01*
X0038353Y0191594D01*
X0038293Y0191448D01*
X0038229Y0191303D01*
X0038161Y0191160D01*
X0038090Y0191018D01*
X0038016Y0190878D01*
X0037938Y0190741D01*
X0037856Y0190605D01*
X0037772Y0190471D01*
X0037683Y0190340D01*
X0037592Y0190211D01*
X0037497Y0190084D01*
X0037400Y0189959D01*
X0037299Y0189837D01*
X0037195Y0189718D01*
X0037088Y0189601D01*
X0036978Y0189487D01*
X0036865Y0189376D01*
X0036750Y0189267D01*
X0036632Y0189162D01*
X0036511Y0189060D01*
X0036388Y0188960D01*
X0036262Y0188864D01*
X0036134Y0188771D01*
X0036004Y0188681D01*
X0035871Y0188595D01*
X0035736Y0188511D01*
X0035600Y0188432D01*
X0035461Y0188355D01*
X0035320Y0188283D01*
X0035178Y0188213D01*
X0035034Y0188148D01*
X0034888Y0188086D01*
X0034741Y0188028D01*
X0034592Y0187973D01*
X0034442Y0187922D01*
X0034291Y0187875D01*
X0034139Y0187832D01*
X0033986Y0187793D01*
X0033831Y0187757D01*
X0033676Y0187726D01*
X0033520Y0187698D01*
X0033364Y0187674D01*
X0033207Y0187654D01*
X0033049Y0187638D01*
X0032892Y0187626D01*
X0032733Y0187618D01*
X0032575Y0187614D01*
X0032417Y0187614D01*
X0032259Y0187618D01*
X0032100Y0187626D01*
X0031943Y0187638D01*
X0031785Y0187654D01*
X0031628Y0187674D01*
X0031472Y0187698D01*
X0031316Y0187726D01*
X0031161Y0187757D01*
X0031006Y0187793D01*
X0030853Y0187832D01*
X0030701Y0187875D01*
X0030550Y0187922D01*
X0030400Y0187973D01*
X0030251Y0188028D01*
X0030104Y0188086D01*
X0029958Y0188148D01*
X0029814Y0188213D01*
X0029672Y0188283D01*
X0029531Y0188355D01*
X0029392Y0188432D01*
X0029256Y0188511D01*
X0029121Y0188595D01*
X0028988Y0188681D01*
X0028858Y0188771D01*
X0028730Y0188864D01*
X0028604Y0188960D01*
X0028481Y0189060D01*
X0028360Y0189162D01*
X0028242Y0189267D01*
X0028127Y0189376D01*
X0028014Y0189487D01*
X0027904Y0189601D01*
X0027797Y0189718D01*
X0027693Y0189837D01*
X0027592Y0189959D01*
X0027495Y0190084D01*
X0027400Y0190211D01*
X0027309Y0190340D01*
X0027220Y0190471D01*
X0027136Y0190605D01*
X0027054Y0190741D01*
X0026976Y0190878D01*
X0026902Y0191018D01*
X0026831Y0191160D01*
X0026763Y0191303D01*
X0026699Y0191448D01*
X0026639Y0191594D01*
X0026583Y0191742D01*
X0026530Y0191891D01*
X0026481Y0192042D01*
X0026436Y0192194D01*
X0026395Y0192347D01*
X0026357Y0192500D01*
X0026324Y0192655D01*
X0026294Y0192811D01*
X0026268Y0192967D01*
X0026247Y0193124D01*
X0026229Y0193281D01*
X0026215Y0193439D01*
X0026205Y0193597D01*
X0026199Y0193755D01*
X0026197Y0193913D01*
X0187614Y0319898D02*
X0187616Y0320056D01*
X0187622Y0320214D01*
X0187632Y0320372D01*
X0187646Y0320530D01*
X0187664Y0320687D01*
X0187685Y0320844D01*
X0187711Y0321000D01*
X0187741Y0321156D01*
X0187774Y0321311D01*
X0187812Y0321464D01*
X0187853Y0321617D01*
X0187898Y0321769D01*
X0187947Y0321920D01*
X0188000Y0322069D01*
X0188056Y0322217D01*
X0188116Y0322363D01*
X0188180Y0322508D01*
X0188248Y0322651D01*
X0188319Y0322793D01*
X0188393Y0322933D01*
X0188471Y0323070D01*
X0188553Y0323206D01*
X0188637Y0323340D01*
X0188726Y0323471D01*
X0188817Y0323600D01*
X0188912Y0323727D01*
X0189009Y0323852D01*
X0189110Y0323974D01*
X0189214Y0324093D01*
X0189321Y0324210D01*
X0189431Y0324324D01*
X0189544Y0324435D01*
X0189659Y0324544D01*
X0189777Y0324649D01*
X0189898Y0324751D01*
X0190021Y0324851D01*
X0190147Y0324947D01*
X0190275Y0325040D01*
X0190405Y0325130D01*
X0190538Y0325216D01*
X0190673Y0325300D01*
X0190809Y0325379D01*
X0190948Y0325456D01*
X0191089Y0325528D01*
X0191231Y0325598D01*
X0191375Y0325663D01*
X0191521Y0325725D01*
X0191668Y0325783D01*
X0191817Y0325838D01*
X0191967Y0325889D01*
X0192118Y0325936D01*
X0192270Y0325979D01*
X0192423Y0326018D01*
X0192578Y0326054D01*
X0192733Y0326085D01*
X0192889Y0326113D01*
X0193045Y0326137D01*
X0193202Y0326157D01*
X0193360Y0326173D01*
X0193517Y0326185D01*
X0193676Y0326193D01*
X0193834Y0326197D01*
X0193992Y0326197D01*
X0194150Y0326193D01*
X0194309Y0326185D01*
X0194466Y0326173D01*
X0194624Y0326157D01*
X0194781Y0326137D01*
X0194937Y0326113D01*
X0195093Y0326085D01*
X0195248Y0326054D01*
X0195403Y0326018D01*
X0195556Y0325979D01*
X0195708Y0325936D01*
X0195859Y0325889D01*
X0196009Y0325838D01*
X0196158Y0325783D01*
X0196305Y0325725D01*
X0196451Y0325663D01*
X0196595Y0325598D01*
X0196737Y0325528D01*
X0196878Y0325456D01*
X0197017Y0325379D01*
X0197153Y0325300D01*
X0197288Y0325216D01*
X0197421Y0325130D01*
X0197551Y0325040D01*
X0197679Y0324947D01*
X0197805Y0324851D01*
X0197928Y0324751D01*
X0198049Y0324649D01*
X0198167Y0324544D01*
X0198282Y0324435D01*
X0198395Y0324324D01*
X0198505Y0324210D01*
X0198612Y0324093D01*
X0198716Y0323974D01*
X0198817Y0323852D01*
X0198914Y0323727D01*
X0199009Y0323600D01*
X0199100Y0323471D01*
X0199189Y0323340D01*
X0199273Y0323206D01*
X0199355Y0323070D01*
X0199433Y0322933D01*
X0199507Y0322793D01*
X0199578Y0322651D01*
X0199646Y0322508D01*
X0199710Y0322363D01*
X0199770Y0322217D01*
X0199826Y0322069D01*
X0199879Y0321920D01*
X0199928Y0321769D01*
X0199973Y0321617D01*
X0200014Y0321464D01*
X0200052Y0321311D01*
X0200085Y0321156D01*
X0200115Y0321000D01*
X0200141Y0320844D01*
X0200162Y0320687D01*
X0200180Y0320530D01*
X0200194Y0320372D01*
X0200204Y0320214D01*
X0200210Y0320056D01*
X0200212Y0319898D01*
X0200210Y0319740D01*
X0200204Y0319582D01*
X0200194Y0319424D01*
X0200180Y0319266D01*
X0200162Y0319109D01*
X0200141Y0318952D01*
X0200115Y0318796D01*
X0200085Y0318640D01*
X0200052Y0318485D01*
X0200014Y0318332D01*
X0199973Y0318179D01*
X0199928Y0318027D01*
X0199879Y0317876D01*
X0199826Y0317727D01*
X0199770Y0317579D01*
X0199710Y0317433D01*
X0199646Y0317288D01*
X0199578Y0317145D01*
X0199507Y0317003D01*
X0199433Y0316863D01*
X0199355Y0316726D01*
X0199273Y0316590D01*
X0199189Y0316456D01*
X0199100Y0316325D01*
X0199009Y0316196D01*
X0198914Y0316069D01*
X0198817Y0315944D01*
X0198716Y0315822D01*
X0198612Y0315703D01*
X0198505Y0315586D01*
X0198395Y0315472D01*
X0198282Y0315361D01*
X0198167Y0315252D01*
X0198049Y0315147D01*
X0197928Y0315045D01*
X0197805Y0314945D01*
X0197679Y0314849D01*
X0197551Y0314756D01*
X0197421Y0314666D01*
X0197288Y0314580D01*
X0197153Y0314496D01*
X0197017Y0314417D01*
X0196878Y0314340D01*
X0196737Y0314268D01*
X0196595Y0314198D01*
X0196451Y0314133D01*
X0196305Y0314071D01*
X0196158Y0314013D01*
X0196009Y0313958D01*
X0195859Y0313907D01*
X0195708Y0313860D01*
X0195556Y0313817D01*
X0195403Y0313778D01*
X0195248Y0313742D01*
X0195093Y0313711D01*
X0194937Y0313683D01*
X0194781Y0313659D01*
X0194624Y0313639D01*
X0194466Y0313623D01*
X0194309Y0313611D01*
X0194150Y0313603D01*
X0193992Y0313599D01*
X0193834Y0313599D01*
X0193676Y0313603D01*
X0193517Y0313611D01*
X0193360Y0313623D01*
X0193202Y0313639D01*
X0193045Y0313659D01*
X0192889Y0313683D01*
X0192733Y0313711D01*
X0192578Y0313742D01*
X0192423Y0313778D01*
X0192270Y0313817D01*
X0192118Y0313860D01*
X0191967Y0313907D01*
X0191817Y0313958D01*
X0191668Y0314013D01*
X0191521Y0314071D01*
X0191375Y0314133D01*
X0191231Y0314198D01*
X0191089Y0314268D01*
X0190948Y0314340D01*
X0190809Y0314417D01*
X0190673Y0314496D01*
X0190538Y0314580D01*
X0190405Y0314666D01*
X0190275Y0314756D01*
X0190147Y0314849D01*
X0190021Y0314945D01*
X0189898Y0315045D01*
X0189777Y0315147D01*
X0189659Y0315252D01*
X0189544Y0315361D01*
X0189431Y0315472D01*
X0189321Y0315586D01*
X0189214Y0315703D01*
X0189110Y0315822D01*
X0189009Y0315944D01*
X0188912Y0316069D01*
X0188817Y0316196D01*
X0188726Y0316325D01*
X0188637Y0316456D01*
X0188553Y0316590D01*
X0188471Y0316726D01*
X0188393Y0316863D01*
X0188319Y0317003D01*
X0188248Y0317145D01*
X0188180Y0317288D01*
X0188116Y0317433D01*
X0188056Y0317579D01*
X0188000Y0317727D01*
X0187947Y0317876D01*
X0187898Y0318027D01*
X0187853Y0318179D01*
X0187812Y0318332D01*
X0187774Y0318485D01*
X0187741Y0318640D01*
X0187711Y0318796D01*
X0187685Y0318952D01*
X0187664Y0319109D01*
X0187646Y0319266D01*
X0187632Y0319424D01*
X0187622Y0319582D01*
X0187616Y0319740D01*
X0187614Y0319898D01*
X0187614Y0028559D02*
X0187616Y0028717D01*
X0187622Y0028875D01*
X0187632Y0029033D01*
X0187646Y0029191D01*
X0187664Y0029348D01*
X0187685Y0029505D01*
X0187711Y0029661D01*
X0187741Y0029817D01*
X0187774Y0029972D01*
X0187812Y0030125D01*
X0187853Y0030278D01*
X0187898Y0030430D01*
X0187947Y0030581D01*
X0188000Y0030730D01*
X0188056Y0030878D01*
X0188116Y0031024D01*
X0188180Y0031169D01*
X0188248Y0031312D01*
X0188319Y0031454D01*
X0188393Y0031594D01*
X0188471Y0031731D01*
X0188553Y0031867D01*
X0188637Y0032001D01*
X0188726Y0032132D01*
X0188817Y0032261D01*
X0188912Y0032388D01*
X0189009Y0032513D01*
X0189110Y0032635D01*
X0189214Y0032754D01*
X0189321Y0032871D01*
X0189431Y0032985D01*
X0189544Y0033096D01*
X0189659Y0033205D01*
X0189777Y0033310D01*
X0189898Y0033412D01*
X0190021Y0033512D01*
X0190147Y0033608D01*
X0190275Y0033701D01*
X0190405Y0033791D01*
X0190538Y0033877D01*
X0190673Y0033961D01*
X0190809Y0034040D01*
X0190948Y0034117D01*
X0191089Y0034189D01*
X0191231Y0034259D01*
X0191375Y0034324D01*
X0191521Y0034386D01*
X0191668Y0034444D01*
X0191817Y0034499D01*
X0191967Y0034550D01*
X0192118Y0034597D01*
X0192270Y0034640D01*
X0192423Y0034679D01*
X0192578Y0034715D01*
X0192733Y0034746D01*
X0192889Y0034774D01*
X0193045Y0034798D01*
X0193202Y0034818D01*
X0193360Y0034834D01*
X0193517Y0034846D01*
X0193676Y0034854D01*
X0193834Y0034858D01*
X0193992Y0034858D01*
X0194150Y0034854D01*
X0194309Y0034846D01*
X0194466Y0034834D01*
X0194624Y0034818D01*
X0194781Y0034798D01*
X0194937Y0034774D01*
X0195093Y0034746D01*
X0195248Y0034715D01*
X0195403Y0034679D01*
X0195556Y0034640D01*
X0195708Y0034597D01*
X0195859Y0034550D01*
X0196009Y0034499D01*
X0196158Y0034444D01*
X0196305Y0034386D01*
X0196451Y0034324D01*
X0196595Y0034259D01*
X0196737Y0034189D01*
X0196878Y0034117D01*
X0197017Y0034040D01*
X0197153Y0033961D01*
X0197288Y0033877D01*
X0197421Y0033791D01*
X0197551Y0033701D01*
X0197679Y0033608D01*
X0197805Y0033512D01*
X0197928Y0033412D01*
X0198049Y0033310D01*
X0198167Y0033205D01*
X0198282Y0033096D01*
X0198395Y0032985D01*
X0198505Y0032871D01*
X0198612Y0032754D01*
X0198716Y0032635D01*
X0198817Y0032513D01*
X0198914Y0032388D01*
X0199009Y0032261D01*
X0199100Y0032132D01*
X0199189Y0032001D01*
X0199273Y0031867D01*
X0199355Y0031731D01*
X0199433Y0031594D01*
X0199507Y0031454D01*
X0199578Y0031312D01*
X0199646Y0031169D01*
X0199710Y0031024D01*
X0199770Y0030878D01*
X0199826Y0030730D01*
X0199879Y0030581D01*
X0199928Y0030430D01*
X0199973Y0030278D01*
X0200014Y0030125D01*
X0200052Y0029972D01*
X0200085Y0029817D01*
X0200115Y0029661D01*
X0200141Y0029505D01*
X0200162Y0029348D01*
X0200180Y0029191D01*
X0200194Y0029033D01*
X0200204Y0028875D01*
X0200210Y0028717D01*
X0200212Y0028559D01*
X0200210Y0028401D01*
X0200204Y0028243D01*
X0200194Y0028085D01*
X0200180Y0027927D01*
X0200162Y0027770D01*
X0200141Y0027613D01*
X0200115Y0027457D01*
X0200085Y0027301D01*
X0200052Y0027146D01*
X0200014Y0026993D01*
X0199973Y0026840D01*
X0199928Y0026688D01*
X0199879Y0026537D01*
X0199826Y0026388D01*
X0199770Y0026240D01*
X0199710Y0026094D01*
X0199646Y0025949D01*
X0199578Y0025806D01*
X0199507Y0025664D01*
X0199433Y0025524D01*
X0199355Y0025387D01*
X0199273Y0025251D01*
X0199189Y0025117D01*
X0199100Y0024986D01*
X0199009Y0024857D01*
X0198914Y0024730D01*
X0198817Y0024605D01*
X0198716Y0024483D01*
X0198612Y0024364D01*
X0198505Y0024247D01*
X0198395Y0024133D01*
X0198282Y0024022D01*
X0198167Y0023913D01*
X0198049Y0023808D01*
X0197928Y0023706D01*
X0197805Y0023606D01*
X0197679Y0023510D01*
X0197551Y0023417D01*
X0197421Y0023327D01*
X0197288Y0023241D01*
X0197153Y0023157D01*
X0197017Y0023078D01*
X0196878Y0023001D01*
X0196737Y0022929D01*
X0196595Y0022859D01*
X0196451Y0022794D01*
X0196305Y0022732D01*
X0196158Y0022674D01*
X0196009Y0022619D01*
X0195859Y0022568D01*
X0195708Y0022521D01*
X0195556Y0022478D01*
X0195403Y0022439D01*
X0195248Y0022403D01*
X0195093Y0022372D01*
X0194937Y0022344D01*
X0194781Y0022320D01*
X0194624Y0022300D01*
X0194466Y0022284D01*
X0194309Y0022272D01*
X0194150Y0022264D01*
X0193992Y0022260D01*
X0193834Y0022260D01*
X0193676Y0022264D01*
X0193517Y0022272D01*
X0193360Y0022284D01*
X0193202Y0022300D01*
X0193045Y0022320D01*
X0192889Y0022344D01*
X0192733Y0022372D01*
X0192578Y0022403D01*
X0192423Y0022439D01*
X0192270Y0022478D01*
X0192118Y0022521D01*
X0191967Y0022568D01*
X0191817Y0022619D01*
X0191668Y0022674D01*
X0191521Y0022732D01*
X0191375Y0022794D01*
X0191231Y0022859D01*
X0191089Y0022929D01*
X0190948Y0023001D01*
X0190809Y0023078D01*
X0190673Y0023157D01*
X0190538Y0023241D01*
X0190405Y0023327D01*
X0190275Y0023417D01*
X0190147Y0023510D01*
X0190021Y0023606D01*
X0189898Y0023706D01*
X0189777Y0023808D01*
X0189659Y0023913D01*
X0189544Y0024022D01*
X0189431Y0024133D01*
X0189321Y0024247D01*
X0189214Y0024364D01*
X0189110Y0024483D01*
X0189009Y0024605D01*
X0188912Y0024730D01*
X0188817Y0024857D01*
X0188726Y0024986D01*
X0188637Y0025117D01*
X0188553Y0025251D01*
X0188471Y0025387D01*
X0188393Y0025524D01*
X0188319Y0025664D01*
X0188248Y0025806D01*
X0188180Y0025949D01*
X0188116Y0026094D01*
X0188056Y0026240D01*
X0188000Y0026388D01*
X0187947Y0026537D01*
X0187898Y0026688D01*
X0187853Y0026840D01*
X0187812Y0026993D01*
X0187774Y0027146D01*
X0187741Y0027301D01*
X0187711Y0027457D01*
X0187685Y0027613D01*
X0187664Y0027770D01*
X0187646Y0027927D01*
X0187632Y0028085D01*
X0187622Y0028243D01*
X0187616Y0028401D01*
X0187614Y0028559D01*
M02*
